# xmcd CD database file
#
# Track frame offsets:
#	150
#	14731
#	28025
#	40969
#	54439
#	68281
#	83309
#	93885
#	108283
#	121703
#	135158
#	148610
#	162370
#	174871
#	186582
#
# Disc length: 2652 seconds
#
# Revision: 4
# Processed by: cddbd v1.5.2PL0 Copyright (c) Steve Scherf et al.
# Submitted via: CDex 1.51
#
DISCID=b20a5a0f
DTITLE=Louis Armstrong - Vol.05 - I Cover The Waterfront
DYEAR=1900
DGENRE=Jazz
TTITLE0=I Cover The Waterfront
TTITLE1=In the Glooming
TTITLE2=Long, Long Ago
TTITLE3=Hey Lawdy Mama
TTITLE4=I'll Get Mine Bye And Bye
TTITLE5=New Do You Call That a Buddy
TTITLE6=Yes Suh!
TTITLE7=When It's Sleepy Time Down South
TTITLE8=Leap Frog
TTITLE9=I Used To Love You  (But It's All Over Now)
TTITLE10=You Rascal You
TTITLE11=(Get Some) Cash For Your Trash
TTITLE12=Among My Souvenirrs
TTITLE13=Coquette
TTITLE14=I Never Knew
EXTD=
EXTT0=
EXTT1=
EXTT2=
EXTT3=
EXTT4=
EXTT5=
EXTT6=
EXTT7=
EXTT8=
EXTT9=
EXTT10=
EXTT11=
EXTT12=
EXTT13=
EXTT14=
PLAYORDER=
